<?xml version="1.0" encoding="UTF-8" standalone="no"?>
<svg width="159px" height="304px" viewBox="0 0 159 304" version="1.1" xmlns="http://www.w3.org/2000/svg" xmlns:xlink="http://www.w3.org/1999/xlink" xmlns:sketch="http://www.bohemiancoding.com/sketch/ns">
    <!-- Generator: Sketch 3.4 (15575) - http://www.bohemiancoding.com/sketch -->
    <title>zeke</title>
    <desc>Created with Sketch.</desc>
    <defs></defs>
    <g id="Page-1" stroke="none" stroke-width="1" fill="none" fill-rule="evenodd" sketch:type="MSPage">
        <g id="Desktop-HD" sketch:type="MSArtboardGroup" transform="translate(-641.000000, -164.000000)">
            <g id="zeke" sketch:type="MSLayerGroup" transform="translate(641.000000, 166.000000)">
                <g id="beard" transform="translate(0.000000, 142.000000)" sketch:type="MSShapeGroup">
                    <path d="M20.333,48 C20.333,48 10.001,60.666 13.667,80.333 C17.333,100 29,108.333 29,108.333 C29,108.333 29.334,119.333 44.667,128 C60,136.667 69.333,141.666 75,146.333 C80.667,151 87,158.667 87,158.667 C87,158.667 89.68,152.448 98.333,147 C107.333,141.333 119.333,130 119.333,130 L118.333,136.667 C118.333,136.667 143.666,119.001 150.333,87.667 C157,56.333 146.667,32 146.667,32 L77.333,17.667 L20.333,48" id="Fill-139" fill="#FFFFFF"></path>
                    <path d="M20.333,48 L19.558,47.368 C19.517,47.419 17.604,49.771 15.695,54.008 C13.786,58.243 11.88,64.368 11.88,71.939 C11.88,74.625 12.12,77.491 12.684,80.516 C14.547,90.514 18.453,97.66 21.906,102.305 C25.358,106.95 28.354,109.1 28.419,109.147 L29,108.333 L28,108.363 C28.004,108.476 28.111,111.38 30.197,115.379 C32.28,119.378 36.352,124.452 44.175,128.871 C59.514,137.536 68.844,142.55 74.364,147.105 C77.134,149.385 80.115,152.445 82.388,154.926 C83.525,156.167 84.487,157.263 85.164,158.049 C85.503,158.442 85.77,158.757 85.952,158.973 C86.134,159.189 86.229,159.303 86.229,159.304 C86.45,159.572 86.797,159.706 87.141,159.657 C87.485,159.608 87.781,159.382 87.918,159.063 L87.673,158.957 L87.918,159.064 L87.918,159.063 L87.673,158.957 L87.918,159.064 C87.946,159.001 90.561,153.075 98.866,147.846 C103.446,144.961 108.713,140.692 112.859,137.134 C117.002,133.577 120.012,130.734 120.02,130.727 L119.333,130 L118.344,129.852 L117.344,136.519 C117.285,136.912 117.467,137.307 117.806,137.517 C118.144,137.727 118.578,137.715 118.905,137.487 C118.953,137.453 125.348,132.99 132.591,124.569 C139.831,116.149 147.93,103.76 151.311,87.875 C152.953,80.157 153.574,72.86 153.574,66.239 C153.572,45.716 147.62,31.69 147.587,31.609 C147.459,31.307 147.19,31.087 146.869,31.021 L77.535,16.688 C77.305,16.64 77.071,16.674 76.863,16.784 L19.863,47.117 C19.746,47.18 19.642,47.265 19.558,47.368 L20.333,48 L20.803,48.883 L77.484,18.719 L146.464,32.979 L146.667,32 L145.747,32.391 L145.76,32.424 C146.075,33.179 151.576,46.734 151.574,66.239 C151.574,72.735 150.965,79.891 149.355,87.459 C146.069,102.908 138.168,115.019 131.075,123.265 C127.529,127.388 124.189,130.542 121.741,132.661 C120.517,133.72 119.516,134.521 118.824,135.055 C118.478,135.322 118.209,135.522 118.028,135.654 C117.938,135.72 117.87,135.769 117.825,135.802 L117.761,135.847 L118.333,136.667 L119.322,136.815 L120.322,130.148 C120.385,129.727 120.173,129.311 119.796,129.114 C119.419,128.916 118.956,128.981 118.646,129.273 C118.646,129.273 118.463,129.446 118.119,129.765 C116.918,130.881 113.78,133.758 109.968,136.967 C106.158,140.176 101.667,143.72 97.8,146.154 C88.93,151.739 86.135,158.145 86.082,158.271 L87,158.667 L87.771,158.03 C87.763,158.021 86.171,156.093 83.862,153.574 C81.552,151.055 78.533,147.948 75.636,145.561 C69.822,140.782 60.486,135.798 45.159,127.129 C37.649,122.881 33.887,118.122 31.97,114.454 C31.013,112.619 30.52,111.054 30.266,109.961 C30.139,109.414 30.072,108.986 30.037,108.7 C30.019,108.558 30.01,108.451 30.005,108.384 L30,108.313 L30,108.3 L29.74,108.31 L30,108.303 L30,108.3 L29.74,108.31 L30,108.303 C29.99,107.992 29.834,107.7 29.581,107.519 L29.579,107.518 C29.467,107.436 26.615,105.345 23.356,100.902 C20.096,96.458 16.425,89.668 14.65,80.15 C14.109,77.248 13.88,74.506 13.88,71.939 C13.88,64.707 15.701,58.863 17.518,54.83 C18.427,52.813 19.334,51.251 20.01,50.199 C20.348,49.673 20.627,49.275 20.82,49.012 C20.916,48.88 20.991,48.782 21.04,48.718 L21.094,48.649 L21.108,48.632 L20.333,48 L20.803,48.883 L20.333,48" id="Fill-140" fill="#AFA295"></path>
                    <path d="M85.341,155.213 C84.893,154.71 84.397,154.158 83.862,153.574 C81.552,151.055 78.533,147.948 75.636,145.561 C69.822,140.782 60.486,135.798 45.159,127.129 C37.649,122.881 33.887,118.122 31.97,114.454 C31.013,112.619 30.52,111.054 30.266,109.961 C30.139,109.414 30.072,108.986 30.037,108.7 C30.019,108.558 30.01,108.451 30.005,108.384 L30,108.313 L30,108.3 L29.999,108.3 C29.989,107.991 29.833,107.699 29.581,107.519 L29.579,107.518 C29.467,107.436 26.615,105.345 23.356,100.902 C20.096,96.458 16.425,89.668 14.65,80.15 C14.109,77.248 13.88,74.506 13.88,71.939 C13.88,64.707 15.701,58.863 17.518,54.83 C17.631,54.578 17.745,54.334 17.858,54.096 C21.795,55.949 26.513,57.348 32.096,57.824 C31.116,63.212 30.127,71.356 31,79.5 C32.5,93.5 39,101 39,101 L33,100.5 C33,100.5 35,111 50.5,117.5 C63.935,123.135 79.998,139.287 85.341,155.213" id="Fill-141" fill="#E3DDD8"></path>
                    <path d="M86.044,157.539 C84.071,155.241 79.345,149.911 75,146.333 C69.333,141.666 60,136.667 44.667,128 C29.334,119.333 29,108.333 29,108.333 C29,108.333 17.333,100 13.667,80.333 C11.46,68.491 14.327,59.188 16.958,53.659 C17.253,53.807 17.553,53.953 17.858,54.096 C17.745,54.334 17.631,54.578 17.518,54.83 C15.701,58.863 13.88,64.707 13.88,71.939 C13.88,74.506 14.109,77.248 14.65,80.15 C16.425,89.668 20.096,96.458 23.356,100.902 C26.615,105.345 29.467,107.436 29.579,107.518 L29.581,107.519 C29.833,107.699 29.989,107.991 29.999,108.3 L30,108.3 L30,108.313 L30.005,108.384 C30.01,108.451 30.019,108.558 30.037,108.7 C30.072,108.986 30.139,109.414 30.266,109.961 C30.52,111.054 31.013,112.619 31.97,114.454 C33.887,118.122 37.649,122.881 45.159,127.129 C60.486,135.798 69.822,140.782 75.636,145.561 C78.533,147.948 81.552,151.055 83.862,153.574 C84.397,154.158 84.893,154.71 85.341,155.213 C85.601,155.989 85.836,156.766 86.044,157.539" id="Fill-142" fill="#9A8D81"></path>
                    <path d="M64,43.332 C64,43.332 69.666,51.666 80.333,51.666 C91,51.666 96.333,43.332 96.333,43.332 L79.667,24.332 L64,43.332" id="Fill-143" fill="#91BAFF"></path>
                    <path d="M64,43.332 L63.173,43.894 C63.215,43.954 64.689,46.117 67.562,48.296 C70.43,50.472 74.732,52.667 80.333,52.666 C85.934,52.668 90.161,50.469 92.949,48.287 C95.742,46.103 97.134,43.934 97.175,43.871 L97.58,43.238 L79.643,22.789 L62.752,43.274 L63.173,43.894 L64,43.332 L64.771,43.968 L79.69,25.875 L95.581,43.991 L96.333,43.332 L95.491,42.793 C95.451,42.856 94.136,44.853 91.597,46.804 C89.053,48.757 85.32,50.664 80.333,50.666 C75.267,50.665 71.402,48.693 68.77,46.702 C67.457,45.707 66.46,44.71 65.798,43.968 C65.466,43.597 65.218,43.29 65.056,43.079 C64.975,42.974 64.915,42.893 64.877,42.84 L64.836,42.782 L64.827,42.77 L64,43.332 L64.771,43.968 L64,43.332" id="Fill-144" fill="#4086FC"></path>
                    <path d="M79.333,10.666 C79.333,10.666 75.333,2.666 61.667,2.666 C48.001,2.666 42.667,12 35.333,16.333 C27.294,21.083 16.333,25.333 16.333,25.333 L29.333,29.333 C29.333,29.333 27.667,34 18,36.333 C8.333,38.666 1.667,37.333 1.667,37.333 C1.667,37.333 10.333,57 36.333,57 C62.333,57 79.667,30.333 79.667,30.333 C79.667,30.333 86.667,43.666 95.667,48.666 C104.667,53.666 112.333,56 112.333,56 L109.333,49.333 C109.333,49.333 115.129,54.2 128.667,52.333 C148,49.666 157.667,26.333 157.667,26.333 C157.667,26.333 146.667,30 135.667,21.333 C124.667,12.666 112.666,1.666 102.333,1.666 C92,1.666 79.333,10.666 79.333,10.666" id="Fill-145" fill="#FFFFFF"></path>
                    <path d="M79.333,10.666 L80.227,10.219 C80.177,10.119 79.09,7.983 76.219,5.862 C73.351,3.738 68.695,1.662 61.667,1.666 C54.601,1.657 49.587,4.114 45.538,7.066 C41.485,10.019 38.317,13.42 34.824,15.472 C30.862,17.814 26.138,20.053 22.414,21.7 C20.551,22.523 18.938,23.2 17.792,23.669 C17.219,23.904 16.762,24.088 16.45,24.212 C16.138,24.336 15.972,24.4 15.971,24.401 C15.575,24.554 15.318,24.943 15.334,25.369 C15.349,25.794 15.632,26.163 16.039,26.289 L29.039,30.289 L29.333,29.333 L28.391,28.997 L28.823,29.151 L28.395,28.985 L28.391,28.997 L28.823,29.151 L28.395,28.985 C28.391,28.994 27.995,30.025 26.481,31.34 C24.965,32.654 22.318,34.261 17.765,35.361 C13.341,36.429 9.562,36.712 6.799,36.712 C5.22,36.712 3.973,36.62 3.127,36.528 C2.704,36.483 2.381,36.437 2.168,36.404 C2.061,36.388 1.981,36.374 1.93,36.365 L1.875,36.355 L1.863,36.352 C1.497,36.279 1.121,36.416 0.887,36.707 C0.654,36.998 0.601,37.395 0.752,37.736 C0.79,37.819 3.014,42.854 8.578,47.907 C14.134,52.96 23.075,58.006 36.333,58 C43.006,58 49.113,56.288 54.501,53.737 C62.583,49.909 69.063,44.203 73.539,39.456 C78.013,34.709 80.482,30.914 80.505,30.878 L79.667,30.333 L78.781,30.798 C78.797,30.826 80.565,34.194 83.483,38.212 C86.407,42.228 90.455,46.905 95.181,49.54 C104.276,54.592 111.998,56.943 112.042,56.957 C112.417,57.071 112.825,56.955 113.084,56.661 C113.343,56.366 113.406,55.947 113.245,55.59 L110.245,48.923 L109.333,49.333 L108.69,50.099 C108.826,50.221 113.162,53.764 122.724,53.759 C124.557,53.759 126.581,53.63 128.804,53.324 C133.823,52.631 138.205,50.597 141.932,47.962 C147.523,44.006 151.666,38.706 154.431,34.396 C157.194,30.084 158.575,26.754 158.591,26.716 C158.741,26.354 158.666,25.938 158.399,25.651 C158.131,25.365 157.723,25.26 157.351,25.384 L157.338,25.388 C157.142,25.451 154.998,26.104 151.794,26.103 C147.749,26.099 142.044,25.081 136.286,20.547 C130.806,16.231 125.043,11.301 119.31,7.421 C116.442,5.481 113.58,3.803 110.744,2.599 C107.91,1.398 105.095,0.667 102.333,0.666 C96.88,0.676 91.04,2.994 86.508,5.273 C81.981,7.558 78.781,9.832 78.754,9.851 L79.333,10.666 L80.227,10.219 L79.333,10.666 L79.912,11.481 C79.912,11.481 79.955,11.451 80.047,11.387 C80.734,10.912 83.991,8.711 88.246,6.644 C92.496,4.572 97.759,2.657 102.333,2.666 C104.737,2.665 107.298,3.309 109.963,4.441 C113.961,6.135 118.175,8.92 122.41,12.101 C126.646,15.282 130.907,18.855 135.048,22.118 C141.206,26.974 147.418,28.107 151.794,28.103 C155.501,28.103 157.91,27.305 157.983,27.282 L157.667,26.333 L156.743,25.95 L156.719,26.007 C156.45,26.641 153.918,32.408 149.178,38.284 C146.809,41.223 143.891,44.187 140.445,46.56 C136.998,48.935 133.032,50.721 128.53,51.342 C126.395,51.637 124.463,51.76 122.724,51.76 C118.191,51.759 114.974,50.927 112.902,50.115 C111.866,49.709 111.117,49.307 110.636,49.014 C110.395,48.868 110.221,48.748 110.112,48.669 L109.996,48.583 L109.974,48.566 L109.972,48.564 L109.614,48.998 L109.976,48.567 L109.972,48.564 L109.614,48.998 L109.976,48.567 C109.62,48.268 109.101,48.255 108.73,48.535 C108.359,48.816 108.23,49.319 108.421,49.743 L111.421,56.41 L112.333,56 L112.624,55.043 L112.544,55.018 C111.712,54.758 104.501,52.431 96.153,47.792 C91.879,45.427 87.927,40.937 85.101,37.037 C83.685,35.088 82.544,33.288 81.759,31.98 C81.366,31.326 81.063,30.794 80.858,30.428 C80.756,30.245 80.679,30.103 80.627,30.008 C80.576,29.913 80.552,29.868 80.552,29.868 C80.388,29.555 80.067,29.351 79.713,29.334 C79.36,29.318 79.021,29.491 78.829,29.788 L78.784,29.855 C78.297,30.589 73.816,37.172 66.379,43.531 C62.662,46.712 58.209,49.835 53.158,52.157 C48.106,54.478 42.463,56 36.333,56 C23.591,55.994 15.199,51.206 9.922,46.426 C7.287,44.035 5.443,41.642 4.262,39.855 C3.671,38.961 3.246,38.219 2.972,37.706 C2.835,37.45 2.735,37.25 2.67,37.118 L2.601,36.97 L2.585,36.936 L2.582,36.93 L1.667,37.333 L1.471,38.314 C1.524,38.324 3.485,38.712 6.799,38.712 C9.699,38.712 13.636,38.415 18.235,37.305 C23.202,36.108 26.2,34.283 27.96,32.702 C29.721,31.123 30.229,29.8 30.275,29.669 C30.367,29.41 30.35,29.13 30.227,28.885 C30.104,28.639 29.89,28.458 29.627,28.377 L16.627,24.377 L16.333,25.333 L16.694,26.265 C16.719,26.254 27.694,22.005 35.842,17.194 C39.683,14.913 42.849,11.48 46.713,8.684 C50.581,5.885 55.067,3.675 61.667,3.666 C68.305,3.67 72.482,5.594 75.031,7.471 C76.304,8.411 77.167,9.345 77.708,10.033 C77.978,10.377 78.167,10.66 78.285,10.85 C78.344,10.946 78.386,11.018 78.411,11.063 L78.437,11.11 L78.44,11.117 L78.794,10.936 L78.439,11.113 L78.44,11.117 L78.794,10.936 L78.439,11.113 C78.57,11.375 78.807,11.565 79.091,11.636 C79.375,11.707 79.673,11.651 79.912,11.481 L79.333,10.666" id="Fill-146" fill="#AFA295"></path>
                    <path d="M36.333,56 C23.591,55.994 15.199,51.206 9.922,46.426 C7.287,44.035 5.443,41.642 4.262,39.855 C4.169,39.714 4.08,39.577 3.995,39.444 C9.777,43.246 19.033,48.109 28.567,48.109 C29.376,48.109 30.189,48.074 31,48 C47.5,46.5 66,35 71,30 C76,25 81,22 81,22 C81,22 85,30 91.5,36.5 C98,43 101,44.5 101,44.5 L103,36 C103,36 114.669,46.036 133.309,46.035 C136.112,46.034 139.076,45.807 142.178,45.285 C141.616,45.725 141.039,46.152 140.445,46.56 C136.998,48.935 133.032,50.721 128.53,51.342 C126.395,51.637 124.463,51.76 122.724,51.76 C118.191,51.759 114.974,50.927 112.902,50.115 C111.866,49.709 111.117,49.307 110.636,49.014 C110.395,48.868 110.221,48.748 110.112,48.669 L109.996,48.583 L109.974,48.566 L109.972,48.564 C109.788,48.411 109.56,48.334 109.333,48.334 C109.12,48.334 108.908,48.401 108.73,48.535 C108.359,48.816 108.23,49.319 108.421,49.743 L110.478,54.315 C107.607,53.282 102.176,51.139 96.153,47.792 C91.879,45.427 87.927,40.937 85.101,37.037 C83.685,35.088 82.544,33.288 81.759,31.98 C81.366,31.326 81.063,30.794 80.858,30.428 C80.756,30.245 80.679,30.103 80.627,30.008 C80.576,29.913 80.552,29.868 80.552,29.868 C80.388,29.555 80.067,29.351 79.713,29.334 C79.698,29.333 79.683,29.333 79.667,29.333 C79.33,29.333 79.013,29.504 78.829,29.788 L78.784,29.855 C78.297,30.589 73.816,37.172 66.379,43.531 C62.662,46.712 58.209,49.835 53.158,52.157 C48.106,54.478 42.463,56 36.333,56" id="Fill-147" fill="#E3DDD8"></path>
                    <path d="M36.333,57 C13.471,57 4.014,41.798 2.064,38.128 C2.654,38.544 3.299,38.986 3.995,39.444 C4.08,39.577 4.169,39.714 4.262,39.855 C5.443,41.642 7.287,44.035 9.922,46.426 C15.199,51.206 23.591,55.994 36.333,56 C42.463,56 48.106,54.478 53.158,52.157 C58.209,49.835 62.662,46.712 66.379,43.531 C73.816,37.172 78.297,30.589 78.784,29.855 L78.829,29.788 C79.013,29.504 79.33,29.333 79.667,29.333 C79.683,29.333 79.698,29.333 79.713,29.334 C80.067,29.351 80.388,29.555 80.552,29.868 C80.552,29.868 80.576,29.913 80.627,30.008 C80.679,30.103 80.756,30.245 80.858,30.428 C81.063,30.794 81.366,31.326 81.759,31.98 C82.544,33.288 83.685,35.088 85.101,37.037 C87.927,40.937 91.879,45.427 96.153,47.792 C102.176,51.139 107.607,53.282 110.478,54.315 L108.421,49.743 C108.23,49.319 108.359,48.816 108.73,48.535 C108.908,48.401 109.12,48.334 109.333,48.334 C109.56,48.334 109.788,48.411 109.972,48.564 L109.974,48.566 L109.996,48.583 L110.112,48.669 C110.221,48.748 110.395,48.868 110.636,49.014 C111.117,49.307 111.866,49.709 112.902,50.115 C114.974,50.927 118.191,51.759 122.724,51.76 C124.463,51.76 126.395,51.637 128.53,51.342 C133.032,50.721 136.998,48.935 140.445,46.56 C141.039,46.152 141.616,45.725 142.178,45.285 C142.847,45.172 143.521,45.046 144.203,44.905 C140.006,48.53 134.829,51.482 128.667,52.333 C126.488,52.633 124.51,52.76 122.724,52.76 C113.414,52.76 109.333,49.333 109.333,49.333 L112.333,56 C112.333,56 104.667,53.666 95.667,48.666 C86.667,43.666 79.667,30.333 79.667,30.333 C79.667,30.333 62.333,57 36.333,57" id="Fill-148" fill="#9A8D81"></path>
                    <path d="M68,55.5 C68,55.5 72,59 79,59 C86,59 90.5,57 90.5,57 C90.5,57 86,65 78.5,65 C71,65 68,55.5 68,55.5" id="Fill-149" fill="#E3DDD8"></path>
                    <path d="M72.5,114 C72.5,114 67.5,113 61.5,106.5 C55.5,100 56,94 56,94 C59.5,99.5 65.5,103.5 65.5,103.5 C65.5,103.5 65.5,101 68.5,97.5 C71.5,94 77.5,90.5 77.5,90.5 C77.5,90.5 75,95.5 73.5,101.5 C72,107.5 72.5,114 72.5,114" id="Fill-150" fill="#E3DDD8"></path>
                    <path d="M111.5,84.5 C111.5,84.5 111.5,93.5 108.5,100.5 L105.5,107.5 C105.5,107.5 116.5,101.5 123,96 C129.5,90.5 130.5,84 130.5,84 C130.5,84 125,90 121,92.5 C117,95 114.5,96.5 114.5,96.5 L111.5,84.5" id="Fill-151" fill="#E3DDD8"></path>
                </g>
                <g id="hardhat" transform="translate(5.000000, 0.000000)" sketch:type="MSShapeGroup">
                    <g id="Oval-1-+-Oval-1-Copy" transform="translate(10.339623, 3.472527)">
                        <path d="M128.45283,53.3901099 C128.45283,23.9035664 99.6976847,0 64.2264151,0 C28.7551455,0 0,23.9035664 0,53.3901099 C0,82.8766534 128.45283,82.8766534 128.45283,53.3901099 Z" id="Oval-1" stroke="#AFA499" stroke-width="2" fill="#FFFFFE"></path>
                        <path d="M7.6823408,59.2936985 C21.8708726,13.8117273 100.697685,1 65.2264151,1 C29.7551455,1 1,24.9035664 1,54.3901099 C1,83.8766534 4.54583516,69.3479071 7.6823408,59.2936985 Z" id="Oval-1-Copy" fill="#E3DCD7"></path>
                    </g>
                    <rect id="Rectangle-4-Copy" stroke="#AFA295" stroke-width="2" fill="#FFFFFF" x="59.8113208" y="0" width="29.509434" height="52" rx="4"></rect>
                    <path d="M59.7234482,3.9724467 C59.7719789,1.77852497 61.6095716,0 63.81777,0 L63.81777,0 C66.0304708,0 67.8242192,1.79065589 67.8242192,3.99712035 L67.8242192,39.0644531 C73.3418107,47.2246094 89.2812495,41.0600586 86.5571284,46.6557617 C83.8330073,52.2514648 64.21875,57.355957 59.8113208,39.9467773 C58.8975437,37.9760742 59.7234482,3.9724467 59.7234482,3.9724467 Z" id="Rectangle-4-Copy-3" fill="#E3DCD7"></path>
                    <g id="Rectangle-4-+-Rectangle-4-Copy-2" transform="translate(0.000000, 62.000000)">
                        <rect id="Rectangle-4" stroke="#AFA295" stroke-width="2" fill="#FFFFFE" x="1.07913669" y="0" width="148.920863" height="16.4945055" rx="2"></rect>
                        <path d="M2.52079576,0.775755486 C3.60994398,2.3225071 8.31035048,6.06796973 8.31035048,6.06796973 C11.6416454,8.84651579 17.8663504,11.0989724 22.2096745,11.0989724 L150,11.0989722 L150,14.485408 C150,15.5950019 149.106629,16.4945055 148.00742,16.4945055 L3.07171648,16.4945055 C1.97124505,16.4945055 1.02702452,15.59933 0.972770239,14.4914948 C0.972770239,14.4914948 0.00263463398,0.246458618 2.52079576,0.775755486 Z" id="Rectangle-4-Copy-2" fill="#E3DCD7"></path>
                    </g>
                </g>
            </g>
        </g>
    </g>
</svg>